STARTFONT 2.1
FONT -FontForge-Syncopate-Book-R-Normal--8-80-72-72-P-59-ISO10646-1
SIZE 8 72 72
FONTBOUNDINGBOX 15 9 -2 -2
COMMENT "Generated by fontforge, http://fontforge.sourceforge.net"
COMMENT "Copyright (c) 2010 by Brian J. Bonislawsky DBA Astigmatic (AOETI). All rights reserved. Available under the Apache 2.0 licence.http://www.apache.org/licenses/LICENSE-2.0.html"
STARTPROPERTIES 39
FOUNDRY "FontForge"
FAMILY_NAME "Syncopate"
WEIGHT_NAME "Book"
SLANT "R"
SETWIDTH_NAME "Normal"
ADD_STYLE_NAME ""
PIXEL_SIZE 8
POINT_SIZE 80
RESOLUTION_X 72
RESOLUTION_Y 72
SPACING "P"
AVERAGE_WIDTH 59
CHARSET_REGISTRY "ISO10646"
CHARSET_ENCODING "1"
FONTNAME_REGISTRY ""
CHARSET_COLLECTIONS "ISO8859-2 ISO8859-9 ISO8859-4 ISO10646-1"
FONT_NAME "Syncopate-Regular"
FACE_NAME "Syncopate Regular"
COPYRIGHT "Copyright (c) 2010 by Brian J. Bonislawsky DBA Astigmatic (AOETI). All rights reserved. Available under the Apache 2.0 licence.http://www.apache.org/licenses/LICENSE-2.0.html"
FONT_VERSION "001.001"
FONT_ASCENT 6
FONT_DESCENT 2
UNDERLINE_POSITION -1
UNDERLINE_THICKNESS 1
X_HEIGHT 4
CAP_HEIGHT 4
RAW_ASCENT 799
RAW_DESCENT 200
NORM_SPACE 3
RELATIVE_WEIGHT 40
RELATIVE_SETWIDTH 70
SUPERSCRIPT_X 0
SUPERSCRIPT_Y 2
SUPERSCRIPT_SIZE 1
SUBSCRIPT_X 0
SUBSCRIPT_Y 2
SUBSCRIPT_SIZE 1
AVG_LOWERCASE_WIDTH 67
AVG_UPPERCASE_WIDTH 65
ENDPROPERTIES
CHARS 370
STARTCHAR space
ENCODING 32
SWIDTH 375 0
DWIDTH 3 0
BBX 1 1 0 0
BITMAP
00
ENDCHAR
STARTCHAR exclam
ENCODING 33
SWIDTH 274 0
DWIDTH 2 0
BBX 1 5 1 0
BITMAP
80
80
80
80
80
ENDCHAR
STARTCHAR quotedbl
ENCODING 34
SWIDTH 290 0
DWIDTH 2 0
BBX 2 1 0 4
BITMAP
C0
ENDCHAR
STARTCHAR numbersign
ENCODING 35
SWIDTH 701 0
DWIDTH 6 0
BBX 5 5 0 0
BITMAP
78
78
50
F8
50
ENDCHAR
STARTCHAR dollar
ENCODING 36
SWIDTH 767 0
DWIDTH 6 0
BBX 5 6 1 0
BITMAP
40
F0
C0
30
50
F8
ENDCHAR
STARTCHAR percent
ENCODING 37
SWIDTH 992 0
DWIDTH 8 0
BBX 7 5 0 0
BITMAP
E4
A8
54
2A
4E
ENDCHAR
STARTCHAR ampersand
ENCODING 38
SWIDTH 926 0
DWIDTH 7 0
BBX 6 5 1 0
BITMAP
F0
A0
C4
B8
FC
ENDCHAR
STARTCHAR quotesingle
ENCODING 39
SWIDTH 140 0
DWIDTH 1 0
BBX 1 1 0 4
BITMAP
80
ENDCHAR
STARTCHAR parenleft
ENCODING 40
SWIDTH 420 0
DWIDTH 3 0
BBX 2 7 1 -1
BITMAP
C0
80
80
80
80
80
C0
ENDCHAR
STARTCHAR parenright
ENCODING 41
SWIDTH 420 0
DWIDTH 3 0
BBX 2 7 1 -1
BITMAP
80
80
40
40
40
80
80
ENDCHAR
STARTCHAR asterisk
ENCODING 42
SWIDTH 503 0
DWIDTH 4 0
BBX 4 3 0 2
BITMAP
D0
60
D0
ENDCHAR
STARTCHAR plus
ENCODING 43
SWIDTH 634 0
DWIDTH 5 0
BBX 3 4 1 1
BITMAP
40
40
E0
40
ENDCHAR
STARTCHAR comma
ENCODING 44
SWIDTH 185 0
DWIDTH 1 0
BBX 1 2 0 -1
BITMAP
80
80
ENDCHAR
STARTCHAR hyphen
ENCODING 45
SWIDTH 540 0
DWIDTH 4 0
BBX 3 1 1 2
BITMAP
E0
ENDCHAR
STARTCHAR period
ENCODING 46
SWIDTH 185 0
DWIDTH 1 0
BBX 1 1 0 0
BITMAP
80
ENDCHAR
STARTCHAR slash
ENCODING 47
SWIDTH 500 0
DWIDTH 4 0
BBX 4 6 0 0
BITMAP
10
20
20
40
40
80
ENDCHAR
STARTCHAR zero
ENCODING 48
SWIDTH 833 0
DWIDTH 7 0
BBX 6 5 0 0
BITMAP
7C
84
84
84
78
ENDCHAR
STARTCHAR one
ENCODING 49
SWIDTH 339 0
DWIDTH 3 0
BBX 2 5 0 0
BITMAP
C0
40
40
40
40
ENDCHAR
STARTCHAR two
ENCODING 50
SWIDTH 728 0
DWIDTH 6 0
BBX 5 5 0 0
BITMAP
F8
08
08
30
F8
ENDCHAR
STARTCHAR three
ENCODING 51
SWIDTH 726 0
DWIDTH 6 0
BBX 5 5 0 0
BITMAP
F8
08
38
08
F8
ENDCHAR
STARTCHAR four
ENCODING 52
SWIDTH 769 0
DWIDTH 6 0
BBX 6 5 0 0
BITMAP
38
28
48
FC
08
ENDCHAR
STARTCHAR five
ENCODING 53
SWIDTH 738 0
DWIDTH 6 0
BBX 5 5 0 0
BITMAP
F8
80
78
08
F8
ENDCHAR
STARTCHAR six
ENCODING 54
SWIDTH 772 0
DWIDTH 6 0
BBX 5 5 1 0
BITMAP
F0
80
F8
88
F0
ENDCHAR
STARTCHAR seven
ENCODING 55
SWIDTH 669 0
DWIDTH 5 0
BBX 5 5 0 0
BITMAP
F8
10
20
20
40
ENDCHAR
STARTCHAR eight
ENCODING 56
SWIDTH 793 0
DWIDTH 6 0
BBX 6 5 0 0
BITMAP
F8
4C
78
84
78
ENDCHAR
STARTCHAR nine
ENCODING 57
SWIDTH 776 0
DWIDTH 6 0
BBX 6 5 0 0
BITMAP
F8
84
4C
38
F8
ENDCHAR
STARTCHAR colon
ENCODING 58
SWIDTH 245 0
DWIDTH 2 0
BBX 1 4 0 0
BITMAP
80
00
00
80
ENDCHAR
STARTCHAR semicolon
ENCODING 59
SWIDTH 234 0
DWIDTH 2 0
BBX 1 5 0 -1
BITMAP
80
00
00
80
80
ENDCHAR
STARTCHAR less
ENCODING 60
SWIDTH 634 0
DWIDTH 5 0
BBX 3 4 1 1
BITMAP
20
40
80
60
ENDCHAR
STARTCHAR equal
ENCODING 61
SWIDTH 634 0
DWIDTH 5 0
BBX 3 2 1 2
BITMAP
E0
E0
ENDCHAR
STARTCHAR greater
ENCODING 62
SWIDTH 634 0
DWIDTH 5 0
BBX 3 4 1 1
BITMAP
80
40
20
C0
ENDCHAR
STARTCHAR question
ENCODING 63
SWIDTH 568 0
DWIDTH 5 0
BBX 4 5 0 0
BITMAP
F0
10
60
00
40
ENDCHAR
STARTCHAR at
ENCODING 64
SWIDTH 1016 0
DWIDTH 8 0
BBX 7 6 1 0
BITMAP
10
EC
FC
D6
BC
78
ENDCHAR
STARTCHAR A
ENCODING 65
SWIDTH 812 0
DWIDTH 7 0
BBX 6 5 0 0
BITMAP
10
28
48
7C
84
ENDCHAR
STARTCHAR B
ENCODING 66
SWIDTH 836 0
DWIDTH 7 0
BBX 5 5 1 0
BITMAP
F8
88
F8
88
F8
ENDCHAR
STARTCHAR C
ENCODING 67
SWIDTH 869 0
DWIDTH 7 0
BBX 5 5 1 0
BITMAP
F8
80
80
80
78
ENDCHAR
STARTCHAR D
ENCODING 68
SWIDTH 910 0
DWIDTH 7 0
BBX 6 5 1 0
BITMAP
F8
84
84
84
F8
ENDCHAR
STARTCHAR E
ENCODING 69
SWIDTH 754 0
DWIDTH 6 0
BBX 4 5 1 0
BITMAP
F0
80
F0
80
F0
ENDCHAR
STARTCHAR F
ENCODING 70
SWIDTH 687 0
DWIDTH 6 0
BBX 4 5 1 0
BITMAP
F0
80
F0
80
80
ENDCHAR
STARTCHAR G
ENCODING 71
SWIDTH 910 0
DWIDTH 7 0
BBX 6 5 1 0
BITMAP
FC
80
9C
84
7C
ENDCHAR
STARTCHAR H
ENCODING 72
SWIDTH 949 0
DWIDTH 8 0
BBX 6 5 1 0
BITMAP
84
84
FC
84
84
ENDCHAR
STARTCHAR I
ENCODING 73
SWIDTH 287 0
DWIDTH 2 0
BBX 1 5 1 0
BITMAP
80
80
80
80
80
ENDCHAR
STARTCHAR J
ENCODING 74
SWIDTH 590 0
DWIDTH 5 0
BBX 4 5 0 0
BITMAP
10
10
10
10
E0
ENDCHAR
STARTCHAR K
ENCODING 75
SWIDTH 806 0
DWIDTH 6 0
BBX 5 5 1 0
BITMAP
98
E0
C0
A0
98
ENDCHAR
STARTCHAR L
ENCODING 76
SWIDTH 701 0
DWIDTH 6 0
BBX 4 5 1 0
BITMAP
80
80
80
80
F0
ENDCHAR
STARTCHAR M
ENCODING 77
SWIDTH 1139 0
DWIDTH 9 0
BBX 7 5 1 0
BITMAP
82
C6
CA
AA
92
ENDCHAR
STARTCHAR N
ENCODING 78
SWIDTH 936 0
DWIDTH 7 0
BBX 6 5 1 0
BITMAP
84
C4
A4
94
8C
ENDCHAR
STARTCHAR O
ENCODING 79
SWIDTH 983 0
DWIDTH 8 0
BBX 6 5 1 0
BITMAP
FC
84
84
84
78
ENDCHAR
STARTCHAR P
ENCODING 80
SWIDTH 818 0
DWIDTH 7 0
BBX 5 5 1 0
BITMAP
F8
88
F8
80
80
ENDCHAR
STARTCHAR Q
ENCODING 81
SWIDTH 983 0
DWIDTH 8 0
BBX 7 5 1 0
BITMAP
FC
84
84
84
7E
ENDCHAR
STARTCHAR R
ENCODING 82
SWIDTH 833 0
DWIDTH 7 0
BBX 5 5 1 0
BITMAP
F8
88
F0
90
88
ENDCHAR
STARTCHAR S
ENCODING 83
SWIDTH 787 0
DWIDTH 6 0
BBX 5 5 1 0
BITMAP
F0
80
70
08
F0
ENDCHAR
STARTCHAR T
ENCODING 84
SWIDTH 708 0
DWIDTH 6 0
BBX 6 5 0 0
BITMAP
FC
20
20
20
20
ENDCHAR
STARTCHAR U
ENCODING 85
SWIDTH 891 0
DWIDTH 7 0
BBX 5 5 1 0
BITMAP
88
88
88
88
F8
ENDCHAR
STARTCHAR V
ENCODING 86
SWIDTH 817 0
DWIDTH 7 0
BBX 6 5 0 0
BITMAP
84
48
48
30
10
ENDCHAR
STARTCHAR W
ENCODING 87
SWIDTH 1266 0
DWIDTH 10 0
BBX 10 5 0 0
BITMAP
8CC0
4C80
5480
5300
2100
ENDCHAR
STARTCHAR X
ENCODING 88
SWIDTH 821 0
DWIDTH 7 0
BBX 6 5 0 0
BITMAP
CC
30
10
68
84
ENDCHAR
STARTCHAR Y
ENCODING 89
SWIDTH 763 0
DWIDTH 6 0
BBX 6 5 0 0
BITMAP
CC
50
20
20
20
ENDCHAR
STARTCHAR Z
ENCODING 90
SWIDTH 728 0
DWIDTH 6 0
BBX 4 5 1 0
BITMAP
F0
20
40
80
F0
ENDCHAR
STARTCHAR bracketleft
ENCODING 91
SWIDTH 409 0
DWIDTH 3 0
BBX 2 6 1 0
BITMAP
C0
80
80
80
80
C0
ENDCHAR
STARTCHAR backslash
ENCODING 92
SWIDTH 500 0
DWIDTH 4 0
BBX 4 6 0 0
BITMAP
80
80
40
40
20
30
ENDCHAR
STARTCHAR bracketright
ENCODING 93
SWIDTH 409 0
DWIDTH 3 0
BBX 2 6 0 0
BITMAP
C0
40
40
40
40
C0
ENDCHAR
STARTCHAR asciicircum
ENCODING 94
SWIDTH 459 0
DWIDTH 4 0
BBX 3 2 0 3
BITMAP
60
A0
ENDCHAR
STARTCHAR underscore
ENCODING 95
SWIDTH 500 0
DWIDTH 4 0
BBX 4 1 0 -1
BITMAP
F0
ENDCHAR
STARTCHAR grave
ENCODING 96
SWIDTH 527 0
DWIDTH 4 0
BBX 2 2 1 4
BITMAP
80
C0
ENDCHAR
STARTCHAR a
ENCODING 97
SWIDTH 888 0
DWIDTH 7 0
BBX 6 5 0 0
BITMAP
7C
04
7C
84
7C
ENDCHAR
STARTCHAR b
ENCODING 98
SWIDTH 836 0
DWIDTH 7 0
BBX 5 5 1 0
BITMAP
F8
88
F8
88
F8
ENDCHAR
STARTCHAR c
ENCODING 99
SWIDTH 869 0
DWIDTH 7 0
BBX 5 5 1 0
BITMAP
F8
80
80
80
78
ENDCHAR
STARTCHAR d
ENCODING 100
SWIDTH 910 0
DWIDTH 7 0
BBX 6 5 1 0
BITMAP
F8
84
84
84
F8
ENDCHAR
STARTCHAR e
ENCODING 101
SWIDTH 910 0
DWIDTH 7 0
BBX 6 5 1 0
BITMAP
F8
84
FC
80
78
ENDCHAR
STARTCHAR f
ENCODING 102
SWIDTH 817 0
DWIDTH 7 0
BBX 5 5 1 0
BITMAP
F8
80
F8
80
80
ENDCHAR
STARTCHAR g
ENCODING 103
SWIDTH 910 0
DWIDTH 7 0
BBX 6 5 1 0
BITMAP
FC
80
9C
84
7C
ENDCHAR
STARTCHAR h
ENCODING 104
SWIDTH 949 0
DWIDTH 8 0
BBX 6 5 1 0
BITMAP
84
84
FC
84
84
ENDCHAR
STARTCHAR i
ENCODING 105
SWIDTH 287 0
DWIDTH 2 0
BBX 1 5 1 0
BITMAP
80
80
80
80
80
ENDCHAR
STARTCHAR j
ENCODING 106
SWIDTH 590 0
DWIDTH 5 0
BBX 4 5 0 0
BITMAP
10
10
10
10
E0
ENDCHAR
STARTCHAR k
ENCODING 107
SWIDTH 867 0
DWIDTH 7 0
BBX 5 5 1 0
BITMAP
88
90
E0
98
88
ENDCHAR
STARTCHAR l
ENCODING 108
SWIDTH 709 0
DWIDTH 6 0
BBX 5 5 1 0
BITMAP
80
80
80
80
F8
ENDCHAR
STARTCHAR m
ENCODING 109
SWIDTH 1246 0
DWIDTH 10 0
BBX 8 6 1 0
BITMAP
44
BB
91
91
91
91
ENDCHAR
STARTCHAR n
ENCODING 110
SWIDTH 933 0
DWIDTH 7 0
BBX 6 6 1 0
BITMAP
20
D8
84
84
84
84
ENDCHAR
STARTCHAR o
ENCODING 111
SWIDTH 983 0
DWIDTH 8 0
BBX 6 5 1 0
BITMAP
FC
84
84
84
78
ENDCHAR
STARTCHAR p
ENCODING 112
SWIDTH 818 0
DWIDTH 7 0
BBX 5 5 1 0
BITMAP
F8
88
F8
80
80
ENDCHAR
STARTCHAR q
ENCODING 113
SWIDTH 983 0
DWIDTH 8 0
BBX 7 5 1 0
BITMAP
FC
84
84
84
7E
ENDCHAR
STARTCHAR r
ENCODING 114
SWIDTH 609 0
DWIDTH 5 0
BBX 4 6 1 0
BITMAP
20
D0
80
80
80
80
ENDCHAR
STARTCHAR s
ENCODING 115
SWIDTH 787 0
DWIDTH 6 0
BBX 5 5 1 0
BITMAP
F0
80
70
08
F0
ENDCHAR
STARTCHAR t
ENCODING 116
SWIDTH 708 0
DWIDTH 6 0
BBX 6 5 0 0
BITMAP
FC
20
20
20
20
ENDCHAR
STARTCHAR u
ENCODING 117
SWIDTH 931 0
DWIDTH 7 0
BBX 6 5 1 0
BITMAP
84
84
84
84
FC
ENDCHAR
STARTCHAR v
ENCODING 118
SWIDTH 817 0
DWIDTH 7 0
BBX 6 5 0 0
BITMAP
84
48
48
30
10
ENDCHAR
STARTCHAR w
ENCODING 119
SWIDTH 1266 0
DWIDTH 10 0
BBX 10 5 0 0
BITMAP
8CC0
4C80
5480
5300
2100
ENDCHAR
STARTCHAR x
ENCODING 120
SWIDTH 821 0
DWIDTH 7 0
BBX 6 5 0 0
BITMAP
CC
30
10
68
84
ENDCHAR
STARTCHAR y
ENCODING 121
SWIDTH 911 0
DWIDTH 7 0
BBX 5 5 1 0
BITMAP
88
88
98
68
F8
ENDCHAR
STARTCHAR z
ENCODING 122
SWIDTH 728 0
DWIDTH 6 0
BBX 4 5 1 0
BITMAP
F0
20
40
80
F0
ENDCHAR
STARTCHAR braceleft
ENCODING 123
SWIDTH 386 0
DWIDTH 3 0
BBX 3 6 0 0
BITMAP
60
40
40
80
40
60
ENDCHAR
STARTCHAR bar
ENCODING 124
SWIDTH 259 0
DWIDTH 2 0
BBX 1 8 1 -2
BITMAP
80
80
80
80
80
80
80
80
ENDCHAR
STARTCHAR braceright
ENCODING 125
SWIDTH 386 0
DWIDTH 3 0
BBX 3 6 0 0
BITMAP
C0
40
40
20
40
C0
ENDCHAR
STARTCHAR asciitilde
ENCODING 126
SWIDTH 634 0
DWIDTH 5 0
BBX 3 1 1 2
BITMAP
E0
ENDCHAR
STARTCHAR nonbreakingspace
ENCODING 160
SWIDTH 375 0
DWIDTH 3 0
BBX 1 1 0 0
BITMAP
00
ENDCHAR
STARTCHAR exclamdown
ENCODING 161
SWIDTH 274 0
DWIDTH 2 0
BBX 1 4 1 0
BITMAP
80
80
80
80
ENDCHAR
STARTCHAR cent
ENCODING 162
SWIDTH 736 0
DWIDTH 6 0
BBX 6 6 0 0
BITMAP
20
7C
A0
A0
A0
7C
ENDCHAR
STARTCHAR sterling
ENCODING 163
SWIDTH 792 0
DWIDTH 6 0
BBX 6 5 0 0
BITMAP
7C
40
F8
40
FC
ENDCHAR
STARTCHAR currency
ENCODING 164
SWIDTH 560 0
DWIDTH 4 0
BBX 4 3 0 1
BITMAP
F0
90
F0
ENDCHAR
STARTCHAR yen
ENCODING 165
SWIDTH 811 0
DWIDTH 6 0
BBX 6 5 0 0
BITMAP
CC
30
5C
6C
20
ENDCHAR
STARTCHAR brokenbar
ENCODING 166
SWIDTH 259 0
DWIDTH 2 0
BBX 1 7 1 -1
BITMAP
80
80
80
00
80
80
80
ENDCHAR
STARTCHAR section
ENCODING 167
SWIDTH 500 0
DWIDTH 4 0
BBX 4 5 0 0
BITMAP
E0
E0
90
60
E0
ENDCHAR
STARTCHAR dieresis
ENCODING 168
SWIDTH 527 0
DWIDTH 4 0
BBX 1 1 1 4
BITMAP
80
ENDCHAR
STARTCHAR copyright
ENCODING 169
SWIDTH 770 0
DWIDTH 6 0
BBX 6 5 0 0
BITMAP
78
F4
C4
B8
78
ENDCHAR
STARTCHAR ordfeminine
ENCODING 170
SWIDTH 497 0
DWIDTH 4 0
BBX 4 3 0 2
BITMAP
70
F0
F0
ENDCHAR
STARTCHAR guillemotleft
ENCODING 171
SWIDTH 440 0
DWIDTH 4 0
BBX 3 3 0 1
BITMAP
E0
C0
60
ENDCHAR
STARTCHAR logicalnot
ENCODING 172
SWIDTH 634 0
DWIDTH 5 0
BBX 3 2 1 2
BITMAP
E0
20
ENDCHAR
STARTCHAR uni00AD
ENCODING 173
SWIDTH 540 0
DWIDTH 4 0
BBX 3 1 1 2
BITMAP
E0
ENDCHAR
STARTCHAR registered
ENCODING 174
SWIDTH 600 0
DWIDTH 5 0
BBX 4 3 0 2
BITMAP
F0
B0
F0
ENDCHAR
STARTCHAR macron
ENCODING 175
SWIDTH 527 0
DWIDTH 4 0
BBX 2 1 1 4
BITMAP
C0
ENDCHAR
STARTCHAR degree
ENCODING 176
SWIDTH 373 0
DWIDTH 3 0
BBX 1 2 1 3
BITMAP
80
80
ENDCHAR
STARTCHAR plusminus
ENCODING 177
SWIDTH 634 0
DWIDTH 5 0
BBX 3 5 1 0
BITMAP
40
40
E0
40
E0
ENDCHAR
STARTCHAR twosuperior
ENCODING 178
SWIDTH 511 0
DWIDTH 4 0
BBX 4 3 0 2
BITMAP
F0
20
F0
ENDCHAR
STARTCHAR threesuperior
ENCODING 179
SWIDTH 512 0
DWIDTH 4 0
BBX 4 3 0 2
BITMAP
E0
60
F0
ENDCHAR
STARTCHAR acute
ENCODING 180
SWIDTH 527 0
DWIDTH 4 0
BBX 2 2 2 4
BITMAP
80
C0
ENDCHAR
STARTCHAR micro
ENCODING 181
SWIDTH 705 0
DWIDTH 6 0
BBX 5 6 0 -2
BITMAP
48
48
90
50
A8
80
ENDCHAR
STARTCHAR paragraph
ENCODING 182
SWIDTH 585 0
DWIDTH 5 0
BBX 4 5 0 0
BITMAP
70
F0
70
30
30
ENDCHAR
STARTCHAR periodcentered
ENCODING 183
SWIDTH 185 0
DWIDTH 1 0
BBX 1 1 0 2
BITMAP
80
ENDCHAR
STARTCHAR cedilla
ENCODING 184
SWIDTH 527 0
DWIDTH 4 0
BBX 2 2 1 -2
BITMAP
40
C0
ENDCHAR
STARTCHAR onesuperior
ENCODING 185
SWIDTH 261 0
DWIDTH 2 0
BBX 1 3 0 2
BITMAP
80
80
80
ENDCHAR
STARTCHAR ordmasculine
ENCODING 186
SWIDTH 520 0
DWIDTH 4 0
BBX 4 3 0 2
BITMAP
F0
90
F0
ENDCHAR
STARTCHAR guillemotright
ENCODING 187
SWIDTH 440 0
DWIDTH 4 0
BBX 3 3 0 1
BITMAP
A0
60
C0
ENDCHAR
STARTCHAR onequarter
ENCODING 188
SWIDTH 857 0
DWIDTH 7 0
BBX 6 5 0 0
BITMAP
88
90
24
5C
4C
ENDCHAR
STARTCHAR onehalf
ENCODING 189
SWIDTH 937 0
DWIDTH 8 0
BBX 7 5 0 0
BITMAP
88
90
2E
42
4E
ENDCHAR
STARTCHAR threequarters
ENCODING 190
SWIDTH 978 0
DWIDTH 8 0
BBX 7 5 0 0
BITMAP
E4
68
D2
2E
26
ENDCHAR
STARTCHAR questiondown
ENCODING 191
SWIDTH 568 0
DWIDTH 5 0
BBX 3 4 1 0
BITMAP
40
80
80
E0
ENDCHAR
STARTCHAR Agrave
ENCODING 192
SWIDTH 812 0
DWIDTH 7 0
BBX 6 7 0 0
BITMAP
20
10
10
28
48
7C
84
ENDCHAR
STARTCHAR Aacute
ENCODING 193
SWIDTH 812 0
DWIDTH 7 0
BBX 6 7 0 0
BITMAP
18
00
10
28
48
7C
84
ENDCHAR
STARTCHAR Acircumflex
ENCODING 194
SWIDTH 812 0
DWIDTH 7 0
BBX 6 7 0 0
BITMAP
30
08
10
28
48
7C
84
ENDCHAR
STARTCHAR Atilde
ENCODING 195
SWIDTH 812 0
DWIDTH 7 0
BBX 6 7 0 0
BITMAP
28
10
10
28
48
7C
84
ENDCHAR
STARTCHAR Adieresis
ENCODING 196
SWIDTH 812 0
DWIDTH 7 0
BBX 6 7 0 0
BITMAP
30
00
10
28
48
7C
84
ENDCHAR
STARTCHAR Aring
ENCODING 197
SWIDTH 812 0
DWIDTH 7 0
BBX 6 7 0 0
BITMAP
30
00
10
28
48
7C
84
ENDCHAR
STARTCHAR AE
ENCODING 198
SWIDTH 1172 0
DWIDTH 9 0
BBX 9 5 0 0
BITMAP
1F80
2800
4F80
7800
8F80
ENDCHAR
STARTCHAR Ccedilla
ENCODING 199
SWIDTH 869 0
DWIDTH 7 0
BBX 5 7 1 -2
BITMAP
F8
80
80
80
48
30
30
ENDCHAR
STARTCHAR Egrave
ENCODING 200
SWIDTH 754 0
DWIDTH 6 0
BBX 4 7 1 0
BITMAP
40
20
F0
80
F0
80
F0
ENDCHAR
STARTCHAR Eacute
ENCODING 201
SWIDTH 754 0
DWIDTH 6 0
BBX 4 7 1 0
BITMAP
20
00
F0
80
F0
80
F0
ENDCHAR
STARTCHAR Ecircumflex
ENCODING 202
SWIDTH 754 0
DWIDTH 6 0
BBX 4 7 1 0
BITMAP
60
10
F0
80
F0
80
F0
ENDCHAR
STARTCHAR Edieresis
ENCODING 203
SWIDTH 754 0
DWIDTH 6 0
BBX 4 7 1 0
BITMAP
60
00
F0
80
F0
80
F0
ENDCHAR
STARTCHAR Igrave
ENCODING 204
SWIDTH 287 0
DWIDTH 2 0
BBX 2 7 0 0
BITMAP
80
40
80
80
80
80
80
ENDCHAR
STARTCHAR Iacute
ENCODING 205
SWIDTH 287 0
DWIDTH 2 0
BBX 2 7 1 0
BITMAP
C0
00
80
80
80
80
80
ENDCHAR
STARTCHAR Icircumflex
ENCODING 206
SWIDTH 287 0
DWIDTH 2 0
BBX 3 7 0 0
BITMAP
C0
20
80
80
80
80
80
ENDCHAR
STARTCHAR Idieresis
ENCODING 207
SWIDTH 287 0
DWIDTH 2 0
BBX 2 7 0 0
BITMAP
C0
00
80
80
80
80
80
ENDCHAR
STARTCHAR Eth
ENCODING 208
SWIDTH 910 0
DWIDTH 7 0
BBX 7 5 0 0
BITMAP
FC
82
F2
82
FC
ENDCHAR
STARTCHAR Ntilde
ENCODING 209
SWIDTH 936 0
DWIDTH 7 0
BBX 6 7 1 0
BITMAP
30
40
84
C4
A4
94
8C
ENDCHAR
STARTCHAR Ograve
ENCODING 210
SWIDTH 983 0
DWIDTH 8 0
BBX 6 7 1 0
BITMAP
20
00
FC
84
84
84
78
ENDCHAR
STARTCHAR Oacute
ENCODING 211
SWIDTH 983 0
DWIDTH 8 0
BBX 6 7 1 0
BITMAP
10
20
FC
84
84
84
78
ENDCHAR
STARTCHAR Ocircumflex
ENCODING 212
SWIDTH 983 0
DWIDTH 8 0
BBX 6 7 1 0
BITMAP
30
40
FC
84
84
84
78
ENDCHAR
STARTCHAR Otilde
ENCODING 213
SWIDTH 983 0
DWIDTH 8 0
BBX 6 7 1 0
BITMAP
30
00
FC
84
84
84
78
ENDCHAR
STARTCHAR Odieresis
ENCODING 214
SWIDTH 983 0
DWIDTH 8 0
BBX 6 7 1 0
BITMAP
50
00
FC
84
84
84
78
ENDCHAR
STARTCHAR multiply
ENCODING 215
SWIDTH 634 0
DWIDTH 5 0
BBX 3 3 1 1
BITMAP
A0
40
A0
ENDCHAR
STARTCHAR Oslash
ENCODING 216
SWIDTH 983 0
DWIDTH 8 0
BBX 6 7 1 -1
BITMAP
0C
F4
94
A4
C4
48
B0
ENDCHAR
STARTCHAR Ugrave
ENCODING 217
SWIDTH 891 0
DWIDTH 7 0
BBX 5 7 1 0
BITMAP
40
20
88
88
88
88
F8
ENDCHAR
STARTCHAR Uacute
ENCODING 218
SWIDTH 891 0
DWIDTH 7 0
BBX 5 7 1 0
BITMAP
10
20
88
88
88
88
F8
ENDCHAR
STARTCHAR Ucircumflex
ENCODING 219
SWIDTH 891 0
DWIDTH 7 0
BBX 5 7 1 0
BITMAP
20
50
88
88
88
88
F8
ENDCHAR
STARTCHAR Udieresis
ENCODING 220
SWIDTH 891 0
DWIDTH 7 0
BBX 5 7 1 0
BITMAP
50
00
88
88
88
88
F8
ENDCHAR
STARTCHAR Yacute
ENCODING 221
SWIDTH 763 0
DWIDTH 6 0
BBX 6 7 0 0
BITMAP
10
00
CC
50
20
20
20
ENDCHAR
STARTCHAR Thorn
ENCODING 222
SWIDTH 787 0
DWIDTH 6 0
BBX 5 5 1 0
BITMAP
80
F8
88
F0
80
ENDCHAR
STARTCHAR germandbls
ENCODING 223
SWIDTH 863 0
DWIDTH 7 0
BBX 5 6 1 0
BITMAP
20
D8
88
F8
88
F8
ENDCHAR
STARTCHAR agrave
ENCODING 224
SWIDTH 888 0
DWIDTH 7 0
BBX 6 7 0 0
BITMAP
20
10
7C
04
7C
84
7C
ENDCHAR
STARTCHAR aacute
ENCODING 225
SWIDTH 888 0
DWIDTH 7 0
BBX 6 7 0 0
BITMAP
08
10
7C
04
7C
84
7C
ENDCHAR
STARTCHAR acircumflex
ENCODING 226
SWIDTH 888 0
DWIDTH 7 0
BBX 6 7 0 0
BITMAP
10
28
7C
04
7C
84
7C
ENDCHAR
STARTCHAR atilde
ENCODING 227
SWIDTH 888 0
DWIDTH 7 0
BBX 6 7 0 0
BITMAP
38
00
7C
04
7C
84
7C
ENDCHAR
STARTCHAR adieresis
ENCODING 228
SWIDTH 888 0
DWIDTH 7 0
BBX 6 7 0 0
BITMAP
28
00
7C
04
7C
84
7C
ENDCHAR
STARTCHAR aring
ENCODING 229
SWIDTH 888 0
DWIDTH 7 0
BBX 6 7 0 0
BITMAP
38
10
7C
04
7C
84
7C
ENDCHAR
STARTCHAR ae
ENCODING 230
SWIDTH 1551 0
DWIDTH 12 0
BBX 12 5 0 0
BITMAP
7FE0
0410
7FF0
8200
7DF0
ENDCHAR
STARTCHAR ccedilla
ENCODING 231
SWIDTH 869 0
DWIDTH 7 0
BBX 5 7 1 -2
BITMAP
F8
80
80
80
48
30
30
ENDCHAR
STARTCHAR egrave
ENCODING 232
SWIDTH 910 0
DWIDTH 7 0
BBX 6 7 1 0
BITMAP
60
00
F8
84
FC
80
78
ENDCHAR
STARTCHAR eacute
ENCODING 233
SWIDTH 910 0
DWIDTH 7 0
BBX 6 7 1 0
BITMAP
10
20
F8
84
FC
80
78
ENDCHAR
STARTCHAR ecircumflex
ENCODING 234
SWIDTH 910 0
DWIDTH 7 0
BBX 6 7 1 0
BITMAP
30
40
F8
84
FC
80
78
ENDCHAR
STARTCHAR edieresis
ENCODING 235
SWIDTH 910 0
DWIDTH 7 0
BBX 6 7 1 0
BITMAP
50
00
F8
84
FC
80
78
ENDCHAR
STARTCHAR igrave
ENCODING 236
SWIDTH 287 0
DWIDTH 2 0
BBX 2 7 0 0
BITMAP
80
40
80
80
80
80
80
ENDCHAR
STARTCHAR iacute
ENCODING 237
SWIDTH 287 0
DWIDTH 2 0
BBX 2 7 1 0
BITMAP
C0
00
80
80
80
80
80
ENDCHAR
STARTCHAR icircumflex
ENCODING 238
SWIDTH 287 0
DWIDTH 2 0
BBX 3 7 0 0
BITMAP
C0
20
80
80
80
80
80
ENDCHAR
STARTCHAR idieresis
ENCODING 239
SWIDTH 287 0
DWIDTH 2 0
BBX 2 7 0 0
BITMAP
C0
00
80
80
80
80
80
ENDCHAR
STARTCHAR eth
ENCODING 240
SWIDTH 910 0
DWIDTH 7 0
BBX 7 5 0 0
BITMAP
FC
82
F2
82
FC
ENDCHAR
STARTCHAR ntilde
ENCODING 241
SWIDTH 933 0
DWIDTH 7 0
BBX 6 7 1 0
BITMAP
70
20
D8
84
84
84
84
ENDCHAR
STARTCHAR ograve
ENCODING 242
SWIDTH 983 0
DWIDTH 8 0
BBX 6 7 1 0
BITMAP
20
00
FC
84
84
84
78
ENDCHAR
STARTCHAR oacute
ENCODING 243
SWIDTH 983 0
DWIDTH 8 0
BBX 6 7 1 0
BITMAP
10
20
FC
84
84
84
78
ENDCHAR
STARTCHAR ocircumflex
ENCODING 244
SWIDTH 983 0
DWIDTH 8 0
BBX 6 7 1 0
BITMAP
30
40
FC
84
84
84
78
ENDCHAR
STARTCHAR otilde
ENCODING 245
SWIDTH 983 0
DWIDTH 8 0
BBX 6 7 1 0
BITMAP
30
00
FC
84
84
84
78
ENDCHAR
STARTCHAR odieresis
ENCODING 246
SWIDTH 983 0
DWIDTH 8 0
BBX 6 7 1 0
BITMAP
50
00
FC
84
84
84
78
ENDCHAR
STARTCHAR divide
ENCODING 247
SWIDTH 634 0
DWIDTH 5 0
BBX 3 3 1 1
BITMAP
40
E0
40
ENDCHAR
STARTCHAR oslash
ENCODING 248
SWIDTH 983 0
DWIDTH 8 0
BBX 6 7 1 -1
BITMAP
0C
F4
94
A4
C4
48
B0
ENDCHAR
STARTCHAR ugrave
ENCODING 249
SWIDTH 931 0
DWIDTH 7 0
BBX 6 7 1 0
BITMAP
60
00
84
84
84
84
FC
ENDCHAR
STARTCHAR uacute
ENCODING 250
SWIDTH 931 0
DWIDTH 7 0
BBX 6 7 1 0
BITMAP
10
20
84
84
84
84
FC
ENDCHAR
STARTCHAR ucircumflex
ENCODING 251
SWIDTH 931 0
DWIDTH 7 0
BBX 6 7 1 0
BITMAP
30
40
84
84
84
84
FC
ENDCHAR
STARTCHAR udieresis
ENCODING 252
SWIDTH 931 0
DWIDTH 7 0
BBX 6 7 1 0
BITMAP
50
00
84
84
84
84
FC
ENDCHAR
STARTCHAR yacute
ENCODING 253
SWIDTH 911 0
DWIDTH 7 0
BBX 5 7 1 0
BITMAP
10
20
88
88
98
68
F8
ENDCHAR
STARTCHAR thorn
ENCODING 254
SWIDTH 787 0
DWIDTH 6 0
BBX 5 5 1 0
BITMAP
80
F8
88
F0
80
ENDCHAR
STARTCHAR ydieresis
ENCODING 255
SWIDTH 911 0
DWIDTH 7 0
BBX 5 7 1 0
BITMAP
50
00
88
88
98
68
F8
ENDCHAR
STARTCHAR Amacron
ENCODING 256
SWIDTH 812 0
DWIDTH 7 0
BBX 6 6 0 0
BITMAP
30
10
28
48
7C
84
ENDCHAR
STARTCHAR amacron
ENCODING 257
SWIDTH 888 0
DWIDTH 7 0
BBX 6 6 0 0
BITMAP
38
7C
04
7C
84
7C
ENDCHAR
STARTCHAR Abreve
ENCODING 258
SWIDTH 812 0
DWIDTH 7 0
BBX 6 7 0 0
BITMAP
38
00
10
28
48
7C
84
ENDCHAR
STARTCHAR abreve
ENCODING 259
SWIDTH 888 0
DWIDTH 7 0
BBX 6 7 0 0
BITMAP
28
10
7C
04
7C
84
7C
ENDCHAR
STARTCHAR Aogonek
ENCODING 260
SWIDTH 812 0
DWIDTH 7 0
BBX 7 6 0 -1
BITMAP
10
28
48
7C
84
06
ENDCHAR
STARTCHAR aogonek
ENCODING 261
SWIDTH 888 0
DWIDTH 7 0
BBX 7 6 0 -1
BITMAP
7C
04
7C
84
4C
36
ENDCHAR
STARTCHAR Cacute
ENCODING 262
SWIDTH 869 0
DWIDTH 7 0
BBX 5 7 1 0
BITMAP
10
20
F8
80
80
80
78
ENDCHAR
STARTCHAR cacute
ENCODING 263
SWIDTH 869 0
DWIDTH 7 0
BBX 5 7 1 0
BITMAP
10
20
F8
80
80
80
78
ENDCHAR
STARTCHAR Ccircumflex
ENCODING 264
SWIDTH 869 0
DWIDTH 7 0
BBX 5 7 1 0
BITMAP
30
40
F8
80
80
80
78
ENDCHAR
STARTCHAR ccircumflex
ENCODING 265
SWIDTH 869 0
DWIDTH 7 0
BBX 5 7 1 0
BITMAP
30
40
F8
80
80
80
78
ENDCHAR
STARTCHAR Cdotaccent
ENCODING 266
SWIDTH 869 0
DWIDTH 7 0
BBX 5 7 1 0
BITMAP
20
00
F8
80
80
80
78
ENDCHAR
STARTCHAR cdotaccent
ENCODING 267
SWIDTH 869 0
DWIDTH 7 0
BBX 5 7 1 0
BITMAP
20
00
F8
80
80
80
78
ENDCHAR
STARTCHAR Ccaron
ENCODING 268
SWIDTH 869 0
DWIDTH 7 0
BBX 5 7 1 0
BITMAP
70
00
F8
80
80
80
78
ENDCHAR
STARTCHAR ccaron
ENCODING 269
SWIDTH 869 0
DWIDTH 7 0
BBX 5 7 1 0
BITMAP
70
00
F8
80
80
80
78
ENDCHAR
STARTCHAR Dcaron
ENCODING 270
SWIDTH 910 0
DWIDTH 7 0
BBX 6 7 1 0
BITMAP
70
00
F8
84
84
84
F8
ENDCHAR
STARTCHAR dcaron
ENCODING 271
SWIDTH 910 0
DWIDTH 7 0
BBX 6 7 1 0
BITMAP
70
00
F8
84
84
84
F8
ENDCHAR
STARTCHAR Dcroat
ENCODING 272
SWIDTH 910 0
DWIDTH 7 0
BBX 7 5 0 0
BITMAP
FC
82
F2
82
FC
ENDCHAR
STARTCHAR dcroat
ENCODING 273
SWIDTH 910 0
DWIDTH 7 0
BBX 7 5 0 0
BITMAP
FC
82
F2
82
FC
ENDCHAR
STARTCHAR Emacron
ENCODING 274
SWIDTH 754 0
DWIDTH 6 0
BBX 4 6 1 0
BITMAP
60
F0
80
F0
80
F0
ENDCHAR
STARTCHAR emacron
ENCODING 275
SWIDTH 910 0
DWIDTH 7 0
BBX 6 6 1 0
BITMAP
30
F8
84
FC
80
78
ENDCHAR
STARTCHAR Ebreve
ENCODING 276
SWIDTH 754 0
DWIDTH 6 0
BBX 4 7 1 0
BITMAP
A0
40
F0
80
F0
80
F0
ENDCHAR
STARTCHAR ebreve
ENCODING 277
SWIDTH 910 0
DWIDTH 7 0
BBX 6 7 1 0
BITMAP
50
20
F8
84
FC
80
78
ENDCHAR
STARTCHAR Edotaccent
ENCODING 278
SWIDTH 754 0
DWIDTH 6 0
BBX 4 7 1 0
BITMAP
40
00
F0
80
F0
80
F0
ENDCHAR
STARTCHAR edotaccent
ENCODING 279
SWIDTH 910 0
DWIDTH 7 0
BBX 6 7 1 0
BITMAP
20
00
F8
84
FC
80
78
ENDCHAR
STARTCHAR Eogonek
ENCODING 280
SWIDTH 754 0
DWIDTH 6 0
BBX 4 6 1 -1
BITMAP
F0
80
F0
80
80
70
ENDCHAR
STARTCHAR eogonek
ENCODING 281
SWIDTH 910 0
DWIDTH 7 0
BBX 6 6 1 -1
BITMAP
F8
84
FC
80
48
3C
ENDCHAR
STARTCHAR Ecaron
ENCODING 282
SWIDTH 754 0
DWIDTH 6 0
BBX 4 7 1 0
BITMAP
70
00
F0
80
F0
80
F0
ENDCHAR
STARTCHAR ecaron
ENCODING 283
SWIDTH 910 0
DWIDTH 7 0
BBX 6 7 1 0
BITMAP
50
20
F8
84
FC
80
78
ENDCHAR
STARTCHAR Gcircumflex
ENCODING 284
SWIDTH 910 0
DWIDTH 7 0
BBX 6 7 1 0
BITMAP
30
40
FC
80
9C
84
7C
ENDCHAR
STARTCHAR gcircumflex
ENCODING 285
SWIDTH 910 0
DWIDTH 7 0
BBX 6 7 1 0
BITMAP
30
40
FC
80
9C
84
7C
ENDCHAR
STARTCHAR Gbreve
ENCODING 286
SWIDTH 910 0
DWIDTH 7 0
BBX 6 7 1 0
BITMAP
50
20
FC
80
9C
84
7C
ENDCHAR
STARTCHAR gbreve
ENCODING 287
SWIDTH 910 0
DWIDTH 7 0
BBX 6 7 1 0
BITMAP
50
20
FC
80
9C
84
7C
ENDCHAR
STARTCHAR Gdotaccent
ENCODING 288
SWIDTH 910 0
DWIDTH 7 0
BBX 6 7 1 0
BITMAP
20
00
FC
80
9C
84
7C
ENDCHAR
STARTCHAR gdotaccent
ENCODING 289
SWIDTH 910 0
DWIDTH 7 0
BBX 6 7 1 0
BITMAP
20
00
FC
80
9C
84
7C
ENDCHAR
STARTCHAR Gcommaaccent
ENCODING 290
SWIDTH 910 0
DWIDTH 7 0
BBX 6 7 1 -2
BITMAP
FC
80
9C
84
44
38
20
ENDCHAR
STARTCHAR gcommaaccent
ENCODING 291
SWIDTH 910 0
DWIDTH 7 0
BBX 6 7 1 -2
BITMAP
FC
80
9C
84
44
38
20
ENDCHAR
STARTCHAR Hcircumflex
ENCODING 292
SWIDTH 949 0
DWIDTH 8 0
BBX 6 7 1 0
BITMAP
30
40
84
84
FC
84
84
ENDCHAR
STARTCHAR hcircumflex
ENCODING 293
SWIDTH 949 0
DWIDTH 8 0
BBX 6 7 1 0
BITMAP
30
40
84
84
FC
84
84
ENDCHAR
STARTCHAR Hbar
ENCODING 294
SWIDTH 949 0
DWIDTH 8 0
BBX 7 5 0 0
BITMAP
82
FE
FE
82
82
ENDCHAR
STARTCHAR hbar
ENCODING 295
SWIDTH 949 0
DWIDTH 8 0
BBX 7 5 0 0
BITMAP
82
FE
FE
82
82
ENDCHAR
STARTCHAR Itilde
ENCODING 296
SWIDTH 287 0
DWIDTH 2 0
BBX 3 7 0 0
BITMAP
A0
40
80
80
80
80
80
ENDCHAR
STARTCHAR itilde
ENCODING 297
SWIDTH 287 0
DWIDTH 2 0
BBX 3 7 0 0
BITMAP
A0
40
80
80
80
80
80
ENDCHAR
STARTCHAR Imacron
ENCODING 298
SWIDTH 287 0
DWIDTH 2 0
BBX 2 6 0 0
BITMAP
C0
80
80
80
80
80
ENDCHAR
STARTCHAR imacron
ENCODING 299
SWIDTH 287 0
DWIDTH 2 0
BBX 2 6 0 0
BITMAP
C0
80
80
80
80
80
ENDCHAR
STARTCHAR Ibreve
ENCODING 300
SWIDTH 287 0
DWIDTH 2 0
BBX 3 7 0 0
BITMAP
E0
00
80
80
80
80
80
ENDCHAR
STARTCHAR ibreve
ENCODING 301
SWIDTH 287 0
DWIDTH 2 0
BBX 3 7 0 0
BITMAP
E0
00
80
80
80
80
80
ENDCHAR
STARTCHAR Iogonek
ENCODING 302
SWIDTH 287 0
DWIDTH 2 0
BBX 2 6 0 -1
BITMAP
80
80
80
80
80
C0
ENDCHAR
STARTCHAR iogonek
ENCODING 303
SWIDTH 287 0
DWIDTH 2 0
BBX 2 6 0 -1
BITMAP
80
80
80
80
80
C0
ENDCHAR
STARTCHAR Idotaccent
ENCODING 304
SWIDTH 287 0
DWIDTH 2 0
BBX 1 7 1 0
BITMAP
80
00
80
80
80
80
80
ENDCHAR
STARTCHAR dotlessi
ENCODING 305
SWIDTH 287 0
DWIDTH 2 0
BBX 1 5 1 0
BITMAP
80
80
80
80
80
ENDCHAR
STARTCHAR IJ
ENCODING 306
SWIDTH 877 0
DWIDTH 7 0
BBX 5 5 1 0
BITMAP
88
88
88
88
F8
ENDCHAR
STARTCHAR ij
ENCODING 307
SWIDTH 877 0
DWIDTH 7 0
BBX 5 5 1 0
BITMAP
88
88
88
88
F8
ENDCHAR
STARTCHAR Jcircumflex
ENCODING 308
SWIDTH 590 0
DWIDTH 5 0
BBX 5 7 0 0
BITMAP
18
20
10
10
10
10
E0
ENDCHAR
STARTCHAR jcircumflex
ENCODING 309
SWIDTH 590 0
DWIDTH 5 0
BBX 5 7 0 0
BITMAP
18
20
10
10
10
10
E0
ENDCHAR
STARTCHAR Kcommaaccent
ENCODING 310
SWIDTH 806 0
DWIDTH 6 0
BBX 5 7 1 -2
BITMAP
98
E0
C0
A0
98
00
60
ENDCHAR
STARTCHAR kcommaaccent
ENCODING 311
SWIDTH 867 0
DWIDTH 7 0
BBX 5 7 1 -2
BITMAP
88
90
E0
98
88
00
20
ENDCHAR
STARTCHAR kgreenlandic
ENCODING 312
SWIDTH 867 0
DWIDTH 7 0
BBX 5 5 1 0
BITMAP
88
90
E0
98
88
ENDCHAR
STARTCHAR Lacute
ENCODING 313
SWIDTH 701 0
DWIDTH 6 0
BBX 4 7 1 0
BITMAP
C0
00
80
80
80
80
F0
ENDCHAR
STARTCHAR lacute
ENCODING 314
SWIDTH 709 0
DWIDTH 6 0
BBX 5 7 1 0
BITMAP
C0
00
80
80
80
80
F8
ENDCHAR
STARTCHAR Lcommaaccent
ENCODING 315
SWIDTH 701 0
DWIDTH 6 0
BBX 4 7 1 -2
BITMAP
80
80
80
80
80
70
60
ENDCHAR
STARTCHAR lcommaaccent
ENCODING 316
SWIDTH 709 0
DWIDTH 6 0
BBX 5 7 1 -2
BITMAP
80
80
80
80
C0
38
60
ENDCHAR
STARTCHAR Lcaron
ENCODING 317
SWIDTH 701 0
DWIDTH 6 0
BBX 4 5 1 0
BITMAP
A0
80
80
80
F0
ENDCHAR
STARTCHAR lcaron
ENCODING 318
SWIDTH 709 0
DWIDTH 6 0
BBX 5 5 1 0
BITMAP
A0
80
80
80
F8
ENDCHAR
STARTCHAR Ldot
ENCODING 319
SWIDTH 701 0
DWIDTH 6 0
BBX 4 5 1 0
BITMAP
80
80
A0
80
F0
ENDCHAR
STARTCHAR ldotaccent
ENCODING 320
SWIDTH 709 0
DWIDTH 6 0
BBX 5 5 1 0
BITMAP
80
80
A0
80
F8
ENDCHAR
STARTCHAR Lslash
ENCODING 321
SWIDTH 701 0
DWIDTH 6 0
BBX 5 5 0 0
BITMAP
80
A0
C0
80
F8
ENDCHAR
STARTCHAR lslash
ENCODING 322
SWIDTH 709 0
DWIDTH 6 0
BBX 6 5 0 0
BITMAP
80
A0
C0
80
7C
ENDCHAR
STARTCHAR Nacute
ENCODING 323
SWIDTH 936 0
DWIDTH 7 0
BBX 6 7 1 0
BITMAP
10
20
84
C4
A4
94
8C
ENDCHAR
STARTCHAR nacute
ENCODING 324
SWIDTH 933 0
DWIDTH 7 0
BBX 6 7 1 0
BITMAP
10
20
D8
84
84
84
84
ENDCHAR
STARTCHAR Ncommaaccent
ENCODING 325
SWIDTH 936 0
DWIDTH 7 0
BBX 6 7 1 -2
BITMAP
84
C4
A4
94
8C
00
20
ENDCHAR
STARTCHAR ncommaaccent
ENCODING 326
SWIDTH 933 0
DWIDTH 7 0
BBX 6 8 1 -2
BITMAP
20
D8
84
84
84
84
00
20
ENDCHAR
STARTCHAR Ncaron
ENCODING 327
SWIDTH 936 0
DWIDTH 7 0
BBX 6 7 1 0
BITMAP
50
20
84
C4
A4
94
8C
ENDCHAR
STARTCHAR ncaron
ENCODING 328
SWIDTH 933 0
DWIDTH 7 0
BBX 6 7 1 0
BITMAP
50
20
D8
84
84
84
84
ENDCHAR
STARTCHAR napostrophe
ENCODING 329
SWIDTH 1025 0
DWIDTH 8 0
BBX 7 6 0 0
BITMAP
08
B6
42
42
42
42
ENDCHAR
STARTCHAR Eng
ENCODING 330
SWIDTH 936 0
DWIDTH 7 0
BBX 6 5 1 0
BITMAP
C4
A4
94
8C
B8
ENDCHAR
STARTCHAR eng
ENCODING 331
SWIDTH 933 0
DWIDTH 7 0
BBX 6 6 1 0
BITMAP
20
D8
84
84
84
B8
ENDCHAR
STARTCHAR Omacron
ENCODING 332
SWIDTH 983 0
DWIDTH 8 0
BBX 6 6 1 0
BITMAP
30
FC
84
84
84
78
ENDCHAR
STARTCHAR omacron
ENCODING 333
SWIDTH 983 0
DWIDTH 8 0
BBX 6 6 1 0
BITMAP
30
FC
84
84
84
78
ENDCHAR
STARTCHAR Obreve
ENCODING 334
SWIDTH 983 0
DWIDTH 8 0
BBX 6 7 1 0
BITMAP
50
20
FC
84
84
84
78
ENDCHAR
STARTCHAR obreve
ENCODING 335
SWIDTH 983 0
DWIDTH 8 0
BBX 6 7 1 0
BITMAP
50
20
FC
84
84
84
78
ENDCHAR
STARTCHAR Ohungarumlaut
ENCODING 336
SWIDTH 983 0
DWIDTH 8 0
BBX 6 7 1 0
BITMAP
38
00
FC
84
84
84
78
ENDCHAR
STARTCHAR ohungarumlaut
ENCODING 337
SWIDTH 983 0
DWIDTH 8 0
BBX 6 7 1 0
BITMAP
38
00
FC
84
84
84
78
ENDCHAR
STARTCHAR OE
ENCODING 338
SWIDTH 1338 0
DWIDTH 11 0
BBX 9 5 1 0
BITMAP
FF80
8800
8F80
8800
7F80
ENDCHAR
STARTCHAR oe
ENCODING 339
SWIDTH 1688 0
DWIDTH 14 0
BBX 12 5 1 0
BITMAP
FFE0
8410
87F0
8200
7DF0
ENDCHAR
STARTCHAR Racute
ENCODING 340
SWIDTH 833 0
DWIDTH 7 0
BBX 5 7 1 0
BITMAP
20
00
F8
88
F0
90
88
ENDCHAR
STARTCHAR racute
ENCODING 341
SWIDTH 609 0
DWIDTH 5 0
BBX 4 7 1 0
BITMAP
20
60
D0
80
80
80
80
ENDCHAR
STARTCHAR Rcommaaccent
ENCODING 342
SWIDTH 833 0
DWIDTH 7 0
BBX 5 7 1 -2
BITMAP
F8
88
F0
90
88
00
60
ENDCHAR
STARTCHAR rcommaaccent
ENCODING 343
SWIDTH 609 0
DWIDTH 5 0
BBX 4 8 1 -2
BITMAP
20
D0
80
80
80
80
00
80
ENDCHAR
STARTCHAR Rcaron
ENCODING 344
SWIDTH 833 0
DWIDTH 7 0
BBX 5 7 1 0
BITMAP
70
00
F8
88
F0
90
88
ENDCHAR
STARTCHAR rcaron
ENCODING 345
SWIDTH 609 0
DWIDTH 5 0
BBX 4 7 1 0
BITMAP
A0
60
D0
80
80
80
80
ENDCHAR
STARTCHAR Sacute
ENCODING 346
SWIDTH 787 0
DWIDTH 6 0
BBX 5 7 1 0
BITMAP
20
00
F0
80
70
08
F0
ENDCHAR
STARTCHAR sacute
ENCODING 347
SWIDTH 787 0
DWIDTH 6 0
BBX 5 7 1 0
BITMAP
20
00
F0
80
70
08
F0
ENDCHAR
STARTCHAR Scircumflex
ENCODING 348
SWIDTH 787 0
DWIDTH 6 0
BBX 5 7 1 0
BITMAP
60
10
F0
80
70
08
F0
ENDCHAR
STARTCHAR scircumflex
ENCODING 349
SWIDTH 787 0
DWIDTH 6 0
BBX 5 7 1 0
BITMAP
60
10
F0
80
70
08
F0
ENDCHAR
STARTCHAR Scedilla
ENCODING 350
SWIDTH 787 0
DWIDTH 6 0
BBX 5 7 1 -2
BITMAP
F0
80
70
08
90
60
60
ENDCHAR
STARTCHAR scedilla
ENCODING 351
SWIDTH 787 0
DWIDTH 6 0
BBX 5 7 1 -2
BITMAP
F0
80
70
08
90
60
60
ENDCHAR
STARTCHAR Scaron
ENCODING 352
SWIDTH 787 0
DWIDTH 6 0
BBX 5 7 1 0
BITMAP
70
00
F0
80
70
08
F0
ENDCHAR
STARTCHAR scaron
ENCODING 353
SWIDTH 787 0
DWIDTH 6 0
BBX 5 7 1 0
BITMAP
70
00
F0
80
70
08
F0
ENDCHAR
STARTCHAR Tcommaaccent
ENCODING 354
SWIDTH 708 0
DWIDTH 6 0
BBX 6 7 0 -2
BITMAP
FC
20
20
20
20
00
20
ENDCHAR
STARTCHAR tcommaaccent
ENCODING 355
SWIDTH 708 0
DWIDTH 6 0
BBX 6 7 0 -2
BITMAP
FC
20
20
20
20
00
20
ENDCHAR
STARTCHAR Tcaron
ENCODING 356
SWIDTH 708 0
DWIDTH 6 0
BBX 6 7 0 0
BITMAP
70
00
FC
20
20
20
20
ENDCHAR
STARTCHAR tcaron
ENCODING 357
SWIDTH 708 0
DWIDTH 6 0
BBX 6 7 0 0
BITMAP
70
00
FC
20
20
20
20
ENDCHAR
STARTCHAR Tbar
ENCODING 358
SWIDTH 708 0
DWIDTH 6 0
BBX 6 5 0 0
BITMAP
FC
20
78
20
20
ENDCHAR
STARTCHAR tbar
ENCODING 359
SWIDTH 708 0
DWIDTH 6 0
BBX 6 5 0 0
BITMAP
FC
20
78
20
20
ENDCHAR
STARTCHAR Utilde
ENCODING 360
SWIDTH 891 0
DWIDTH 7 0
BBX 5 7 1 0
BITMAP
70
00
88
88
88
88
F8
ENDCHAR
STARTCHAR utilde
ENCODING 361
SWIDTH 931 0
DWIDTH 7 0
BBX 6 7 1 0
BITMAP
30
40
84
84
84
84
FC
ENDCHAR
STARTCHAR Umacron
ENCODING 362
SWIDTH 891 0
DWIDTH 7 0
BBX 5 6 1 0
BITMAP
70
88
88
88
88
F8
ENDCHAR
STARTCHAR umacron
ENCODING 363
SWIDTH 931 0
DWIDTH 7 0
BBX 6 6 1 0
BITMAP
30
84
84
84
84
FC
ENDCHAR
STARTCHAR Ubreve
ENCODING 364
SWIDTH 891 0
DWIDTH 7 0
BBX 5 7 1 0
BITMAP
50
20
88
88
88
88
F8
ENDCHAR
STARTCHAR ubreve
ENCODING 365
SWIDTH 931 0
DWIDTH 7 0
BBX 6 7 1 0
BITMAP
50
20
84
84
84
84
FC
ENDCHAR
STARTCHAR Uring
ENCODING 366
SWIDTH 891 0
DWIDTH 7 0
BBX 5 7 1 0
BITMAP
70
20
88
88
88
88
F8
ENDCHAR
STARTCHAR uring
ENCODING 367
SWIDTH 931 0
DWIDTH 7 0
BBX 6 7 1 0
BITMAP
70
20
84
84
84
84
FC
ENDCHAR
STARTCHAR Uhungarumlaut
ENCODING 368
SWIDTH 891 0
DWIDTH 7 0
BBX 5 7 1 0
BITMAP
30
40
88
88
88
88
F8
ENDCHAR
STARTCHAR uhungarumlaut
ENCODING 369
SWIDTH 931 0
DWIDTH 7 0
BBX 6 7 1 0
BITMAP
30
00
84
84
84
84
FC
ENDCHAR
STARTCHAR Uogonek
ENCODING 370
SWIDTH 891 0
DWIDTH 7 0
BBX 5 6 1 -1
BITMAP
88
88
88
88
88
70
ENDCHAR
STARTCHAR uogonek
ENCODING 371
SWIDTH 931 0
DWIDTH 7 0
BBX 6 6 1 -1
BITMAP
84
84
84
84
9C
6C
ENDCHAR
STARTCHAR Wcircumflex
ENCODING 372
SWIDTH 1266 0
DWIDTH 10 0
BBX 10 7 0 0
BITMAP
0C00
0200
8CC0
4C80
5480
5300
2100
ENDCHAR
STARTCHAR wcircumflex
ENCODING 373
SWIDTH 1266 0
DWIDTH 10 0
BBX 10 7 0 0
BITMAP
0C00
0200
8CC0
4C80
5480
5300
2100
ENDCHAR
STARTCHAR Ycircumflex
ENCODING 374
SWIDTH 763 0
DWIDTH 6 0
BBX 6 7 0 0
BITMAP
30
08
CC
50
20
20
20
ENDCHAR
STARTCHAR ycircumflex
ENCODING 375
SWIDTH 911 0
DWIDTH 7 0
BBX 5 7 1 0
BITMAP
20
50
88
88
98
68
F8
ENDCHAR
STARTCHAR Ydieresis
ENCODING 376
SWIDTH 763 0
DWIDTH 6 0
BBX 6 7 0 0
BITMAP
30
00
CC
50
20
20
20
ENDCHAR
STARTCHAR Zacute
ENCODING 377
SWIDTH 728 0
DWIDTH 6 0
BBX 4 7 1 0
BITMAP
20
40
F0
20
40
80
F0
ENDCHAR
STARTCHAR zacute
ENCODING 378
SWIDTH 728 0
DWIDTH 6 0
BBX 4 7 1 0
BITMAP
20
40
F0
20
40
80
F0
ENDCHAR
STARTCHAR Zdotaccent
ENCODING 379
SWIDTH 728 0
DWIDTH 6 0
BBX 4 7 1 0
BITMAP
40
00
F0
20
40
80
F0
ENDCHAR
STARTCHAR zdotaccent
ENCODING 380
SWIDTH 728 0
DWIDTH 6 0
BBX 4 7 1 0
BITMAP
40
00
F0
20
40
80
F0
ENDCHAR
STARTCHAR Zcaron
ENCODING 381
SWIDTH 728 0
DWIDTH 6 0
BBX 4 7 1 0
BITMAP
E0
00
F0
20
40
80
F0
ENDCHAR
STARTCHAR zcaron
ENCODING 382
SWIDTH 728 0
DWIDTH 6 0
BBX 4 7 1 0
BITMAP
E0
00
F0
20
40
80
F0
ENDCHAR
STARTCHAR florin
ENCODING 402
SWIDTH 835 0
DWIDTH 7 0
BBX 6 5 0 0
BITMAP
1C
10
38
20
E0
ENDCHAR
STARTCHAR AEacute
ENCODING 508
SWIDTH 1172 0
DWIDTH 9 0
BBX 9 7 0 0
BITMAP
0200
0400
1F80
2800
4F80
7800
8F80
ENDCHAR
STARTCHAR aeacute
ENCODING 509
SWIDTH 1551 0
DWIDTH 12 0
BBX 12 7 0 0
BITMAP
0300
0000
7FE0
0410
7FF0
8200
7DF0
ENDCHAR
STARTCHAR Oslashacute
ENCODING 510
SWIDTH 983 0
DWIDTH 8 0
BBX 6 8 1 -1
BITMAP
10
2C
F4
94
A4
C4
48
B0
ENDCHAR
STARTCHAR oslashacute
ENCODING 511
SWIDTH 983 0
DWIDTH 8 0
BBX 6 8 1 -1
BITMAP
10
2C
F4
94
A4
C4
48
B0
ENDCHAR
STARTCHAR dotlessj
ENCODING 567
SWIDTH 590 0
DWIDTH 5 0
BBX 4 5 0 0
BITMAP
10
10
10
10
E0
ENDCHAR
STARTCHAR circumflex
ENCODING 710
SWIDTH 527 0
DWIDTH 4 0
BBX 3 2 1 4
BITMAP
80
E0
ENDCHAR
STARTCHAR caron
ENCODING 711
SWIDTH 527 0
DWIDTH 4 0
BBX 3 2 1 4
BITMAP
A0
C0
ENDCHAR
STARTCHAR breve
ENCODING 728
SWIDTH 527 0
DWIDTH 4 0
BBX 2 1 1 4
BITMAP
C0
ENDCHAR
STARTCHAR dotaccent
ENCODING 729
SWIDTH 527 0
DWIDTH 4 0
BBX 1 1 2 4
BITMAP
00
ENDCHAR
STARTCHAR ring
ENCODING 730
SWIDTH 527 0
DWIDTH 4 0
BBX 2 2 1 4
BITMAP
C0
C0
ENDCHAR
STARTCHAR ogonek
ENCODING 731
SWIDTH 527 0
DWIDTH 4 0
BBX 2 1 1 -1
BITMAP
C0
ENDCHAR
STARTCHAR tilde
ENCODING 732
SWIDTH 527 0
DWIDTH 4 0
BBX 2 1 1 4
BITMAP
C0
ENDCHAR
STARTCHAR hungarumlaut
ENCODING 733
SWIDTH 527 0
DWIDTH 4 0
BBX 3 2 1 4
BITMAP
A0
C0
ENDCHAR
STARTCHAR commaaccent
ENCODING 806
SWIDTH 527 0
DWIDTH 4 0
BBX 1 1 2 -2
BITMAP
80
ENDCHAR
STARTCHAR mu
ENCODING 956
SWIDTH 705 0
DWIDTH 6 0
BBX 5 6 0 -2
BITMAP
48
48
90
50
A8
80
ENDCHAR
STARTCHAR Wgrave
ENCODING 7808
SWIDTH 1266 0
DWIDTH 10 0
BBX 10 7 0 0
BITMAP
0800
0400
8CC0
4C80
5480
5300
2100
ENDCHAR
STARTCHAR wgrave
ENCODING 7809
SWIDTH 1266 0
DWIDTH 10 0
BBX 10 7 0 0
BITMAP
0800
0400
8CC0
4C80
5480
5300
2100
ENDCHAR
STARTCHAR Wacute
ENCODING 7810
SWIDTH 1266 0
DWIDTH 10 0
BBX 10 7 0 0
BITMAP
0400
0000
8CC0
4C80
5480
5300
2100
ENDCHAR
STARTCHAR wacute
ENCODING 7811
SWIDTH 1266 0
DWIDTH 10 0
BBX 10 7 0 0
BITMAP
0400
0000
8CC0
4C80
5480
5300
2100
ENDCHAR
STARTCHAR Wdieresis
ENCODING 7812
SWIDTH 1266 0
DWIDTH 10 0
BBX 10 7 0 0
BITMAP
0C00
0000
8CC0
4C80
5480
5300
2100
ENDCHAR
STARTCHAR wdieresis
ENCODING 7813
SWIDTH 1266 0
DWIDTH 10 0
BBX 10 7 0 0
BITMAP
0C00
0000
8CC0
4C80
5480
5300
2100
ENDCHAR
STARTCHAR Ygrave
ENCODING 7922
SWIDTH 763 0
DWIDTH 6 0
BBX 6 7 0 0
BITMAP
20
10
CC
50
20
20
20
ENDCHAR
STARTCHAR ygrave
ENCODING 7923
SWIDTH 911 0
DWIDTH 7 0
BBX 5 7 1 0
BITMAP
40
20
88
88
98
68
F8
ENDCHAR
STARTCHAR endash
ENCODING 8211
SWIDTH 419 0
DWIDTH 3 0
BBX 3 1 0 2
BITMAP
E0
ENDCHAR
STARTCHAR emdash
ENCODING 8212
SWIDTH 1000 0
DWIDTH 8 0
BBX 8 1 0 2
BITMAP
FF
ENDCHAR
STARTCHAR quoteleft
ENCODING 8216
SWIDTH 163 0
DWIDTH 1 0
BBX 1 1 0 4
BITMAP
80
ENDCHAR
STARTCHAR quoteright
ENCODING 8217
SWIDTH 163 0
DWIDTH 1 0
BBX 1 1 0 4
BITMAP
80
ENDCHAR
STARTCHAR quotesinglbase
ENCODING 8218
SWIDTH 163 0
DWIDTH 1 0
BBX 1 2 0 -1
BITMAP
80
80
ENDCHAR
STARTCHAR quotedblleft
ENCODING 8220
SWIDTH 303 0
DWIDTH 2 0
BBX 2 1 0 4
BITMAP
C0
ENDCHAR
STARTCHAR quotedblright
ENCODING 8221
SWIDTH 303 0
DWIDTH 2 0
BBX 2 1 0 4
BITMAP
C0
ENDCHAR
STARTCHAR quotedblbase
ENCODING 8222
SWIDTH 303 0
DWIDTH 2 0
BBX 2 2 0 -1
BITMAP
C0
C0
ENDCHAR
STARTCHAR dagger
ENCODING 8224
SWIDTH 500 0
DWIDTH 4 0
BBX 2 5 1 0
BITMAP
80
C0
80
80
80
ENDCHAR
STARTCHAR daggerdbl
ENCODING 8225
SWIDTH 500 0
DWIDTH 4 0
BBX 2 5 1 0
BITMAP
80
C0
80
C0
80
ENDCHAR
STARTCHAR bullet
ENCODING 8226
SWIDTH 352 0
DWIDTH 3 0
BBX 1 2 1 2
BITMAP
80
80
ENDCHAR
STARTCHAR ellipsis
ENCODING 8230
SWIDTH 555 0
DWIDTH 4 0
BBX 4 1 0 0
BITMAP
B0
ENDCHAR
STARTCHAR perthousand
ENCODING 8240
SWIDTH 1401 0
DWIDTH 11 0
BBX 11 5 0 0
BITMAP
E400
A800
5440
2BA0
4EE0
ENDCHAR
STARTCHAR guilsinglleft
ENCODING 8249
SWIDTH 257 0
DWIDTH 2 0
BBX 2 3 0 1
BITMAP
C0
80
40
ENDCHAR
STARTCHAR guilsinglright
ENCODING 8250
SWIDTH 257 0
DWIDTH 2 0
BBX 2 3 0 1
BITMAP
80
40
80
ENDCHAR
STARTCHAR fraction
ENCODING 8260
SWIDTH 200 0
DWIDTH 2 0
BBX 5 5 -2 0
BITMAP
08
10
20
40
80
ENDCHAR
STARTCHAR Euro
ENCODING 8364
SWIDTH 833 0
DWIDTH 7 0
BBX 6 5 0 0
BITMAP
7C
40
F8
F0
3C
ENDCHAR
STARTCHAR trademark
ENCODING 8482
SWIDTH 773 0
DWIDTH 6 0
BBX 5 2 0 3
BITMAP
E8
B8
ENDCHAR
STARTCHAR partialdiff
ENCODING 8706
SWIDTH 790 0
DWIDTH 6 0
BBX 6 5 0 0
BITMAP
38
04
FC
84
78
ENDCHAR
STARTCHAR minus
ENCODING 8722
SWIDTH 634 0
DWIDTH 5 0
BBX 3 1 1 2
BITMAP
E0
ENDCHAR
STARTCHAR uni2215
ENCODING 8725
SWIDTH 200 0
DWIDTH 2 0
BBX 5 5 -2 0
BITMAP
08
10
20
40
80
ENDCHAR
STARTCHAR approxequal
ENCODING 8776
SWIDTH 634 0
DWIDTH 5 0
BBX 3 2 1 2
BITMAP
E0
E0
ENDCHAR
STARTCHAR notequal
ENCODING 8800
SWIDTH 634 0
DWIDTH 5 0
BBX 3 4 1 1
BITMAP
40
E0
40
A0
ENDCHAR
STARTCHAR lessequal
ENCODING 8804
SWIDTH 634 0
DWIDTH 5 0
BBX 3 5 1 0
BITMAP
20
40
80
60
E0
ENDCHAR
STARTCHAR greaterequal
ENCODING 8805
SWIDTH 634 0
DWIDTH 5 0
BBX 3 5 1 0
BITMAP
80
40
20
C0
E0
ENDCHAR
STARTCHAR fi
ENCODING 64257
SWIDTH 1104 0
DWIDTH 9 0
BBX 7 5 1 0
BITMAP
FA
82
FA
82
82
ENDCHAR
STARTCHAR fl
ENCODING 64258
SWIDTH 1527 0
DWIDTH 12 0
BBX 11 5 1 0
BITMAP
FA00
8200
FA00
8200
81E0
ENDCHAR
STARTCHAR .notdef
ENCODING -1
SWIDTH 1000 0
DWIDTH 8 0
BBX 1 1 0 0
BITMAP
00
ENDCHAR
ENDFONT
